HIERARCHY
ROOT Hips
{
    OFFSET   0.000000   0.000000   0.000000
    CHANNELS 6 Xposition Yposition Zposition Zrotation Xrotation Yrotation
    JOINT Chest
    {
        OFFSET   0.000000   8.007240   0.000000
        CHANNELS 3 Zrotation Xrotation Yrotation
        JOINT Chest2
        {
            OFFSET   0.000000  22.077100   0.000000
            CHANNELS 3 Zrotation Xrotation Yrotation
            JOINT Neck
            {
                OFFSET   0.000000  23.254800   0.000000
                CHANNELS 3 Zrotation Xrotation Yrotation
                JOINT Head
                {
                    OFFSET   0.000000  14.370000   1.956600
                    CHANNELS 3 Zrotation Xrotation Yrotation
                    End Site
                    {
                        OFFSET   0.000000  19.566000   0.000000
                    }
                }
            }
            JOINT LeftCollar
            {
                OFFSET   3.911900  19.017000  -0.467064
                CHANNELS 3 Zrotation Xrotation Yrotation
                JOINT LeftShoulder
                {
                    OFFSET  10.383700   0.000000   0.000000
                    CHANNELS 3 Zrotation Xrotation Yrotation
                    JOINT LeftElbow
                    {
                        OFFSET  26.662100   0.001476   0.000517
                        CHANNELS 3 Zrotation Xrotation Yrotation
                        JOINT LeftWrist
                        {
                            OFFSET  28.869000  -0.000025  -0.000106
                            CHANNELS 3 Zrotation Xrotation Yrotation
                            JOINT LeftFinger0
                            {
                                OFFSET   2.044660  -2.323460   3.252850
                                CHANNELS 3 Zrotation Xrotation Yrotation
                                JOINT LeftFinger01
                                {
                                    OFFSET   3.088130   0.000000   0.000000
                                    CHANNELS 3 Zrotation Xrotation Yrotation
                                    JOINT LeftFinger02
                                    {
                                        OFFSET   2.639460   0.000000   0.000000
                                        CHANNELS 3 Zrotation Xrotation Yrotation
                                        End Site
                                        {
                                            OFFSET   2.582190   0.000000   0.000000
                                        }
                                    }
                                }
                            }
                            JOINT LeftFinger1
                            {
                                OFFSET   8.364480   0.000000   3.252850
                                CHANNELS 3 Zrotation Xrotation Yrotation
                                JOINT LeftFinger11
                                {
                                    OFFSET   4.646930   0.000000   0.000000
                                    CHANNELS 3 Zrotation Xrotation Yrotation
                                    JOINT LeftFinger12
                                    {
                                        OFFSET   2.323460   0.000000   0.000000
                                        CHANNELS 3 Zrotation Xrotation Yrotation
                                        End Site
                                        {
                                            OFFSET   2.273050   0.000000   0.000000
                                        }
                                    }
                                }
                            }
                            JOINT LeftFinger2
                            {
                                OFFSET   8.364490   0.000015   1.078090
                                CHANNELS 3 Zrotation Xrotation Yrotation
                                JOINT LeftFinger21
                                {
                                    OFFSET   5.111620   0.000000   0.000000
                                    CHANNELS 3 Zrotation Xrotation Yrotation
                                    JOINT LeftFinger22
                                    {
                                        OFFSET   2.788160   0.000016   0.000000
                                        CHANNELS 3 Zrotation Xrotation Yrotation
                                        End Site
                                        {
                                            OFFSET   2.727660   0.000000   0.000000
                                        }
                                    }
                                }
                            }
                            JOINT LeftFinger3
                            {
                                OFFSET   7.899780   0.000017  -1.078090
                                CHANNELS 3 Zrotation Xrotation Yrotation
                                JOINT LeftFinger31
                                {
                                    OFFSET   4.646930   0.000000   0.000000
                                    CHANNELS 3 Zrotation Xrotation Yrotation
                                    JOINT LeftFinger32
                                    {
                                        OFFSET   2.323470   0.000000   0.000000
                                        CHANNELS 3 Zrotation Xrotation Yrotation
                                        End Site
                                        {
                                            OFFSET   2.273050   0.000000   0.000000
                                        }
                                    }
                                }
                            }
                            JOINT LeftFinger4
                            {
                                OFFSET   7.435090   0.000000  -3.252850
                                CHANNELS 3 Zrotation Xrotation Yrotation
                                JOINT LeftFinger41
                                {
                                    OFFSET   3.717550   0.000000   0.000000
                                    CHANNELS 3 Zrotation Xrotation Yrotation
                                    JOINT LeftFinger42
                                    {
                                        OFFSET   1.858770   0.000000   0.000000
                                        CHANNELS 3 Zrotation Xrotation Yrotation
                                        End Site
                                        {
                                            OFFSET   1.818440   0.000000   0.000000
                                        }
                                    }
                                }
                            }
                        }
                    }
                }
            }
            JOINT RightCollar
            {
                OFFSET  -3.911900  19.017000  -0.467063
                CHANNELS 3 Zrotation Xrotation Yrotation
                JOINT RightShoulder
                {
                    OFFSET -10.383700   0.000019   0.000000
                    CHANNELS 3 Zrotation Xrotation Yrotation
                    JOINT RightElbow
                    {
                        OFFSET -26.662100   0.001175   0.000102
                        CHANNELS 3 Zrotation Xrotation Yrotation
                        JOINT RightWrist
                        {
                            OFFSET -28.869000   0.000016  -0.000079
                            CHANNELS 3 Zrotation Xrotation Yrotation
                            JOINT RightFinger0
                            {
                                OFFSET  -2.044660  -2.323490   3.252850
                                CHANNELS 3 Zrotation Xrotation Yrotation
                                JOINT RightFinger01
                                {
                                    OFFSET  -3.088140   0.000000   0.000000
                                    CHANNELS 3 Zrotation Xrotation Yrotation
                                    JOINT RightFinger02
                                    {
                                        OFFSET  -2.639460   0.000000   0.000000
                                        CHANNELS 3 Zrotation Xrotation Yrotation
                                        End Site
                                        {
                                            OFFSET  -2.582190   0.000000   0.000000
                                        }
                                    }
                                }
                            }
                            JOINT RightFinger1
                            {
                                OFFSET  -8.364480   0.000000   3.252850
                                CHANNELS 3 Zrotation Xrotation Yrotation
                                JOINT RightFinger11
                                {
                                    OFFSET  -4.646930   0.000000   0.000000
                                    CHANNELS 3 Zrotation Xrotation Yrotation
                                    JOINT RightFinger12
                                    {
                                        OFFSET  -2.323470   0.000000   0.000000
                                        CHANNELS 3 Zrotation Xrotation Yrotation
                                        End Site
                                        {
                                            OFFSET  -2.273050   0.000000   0.000000
                                        }
                                    }
                                }
                            }
                            JOINT RightFinger2
                            {
                                OFFSET  -8.364480   0.000000   1.078090
                                CHANNELS 3 Zrotation Xrotation Yrotation
                                JOINT RightFinger21
                                {
                                    OFFSET  -5.111620   0.000000   0.000000
                                    CHANNELS 3 Zrotation Xrotation Yrotation
                                    JOINT RightFinger22
                                    {
                                        OFFSET  -2.788160   0.000000   0.000000
                                        CHANNELS 3 Zrotation Xrotation Yrotation
                                        End Site
                                        {
                                            OFFSET  -2.727660   0.000000   0.000000
                                        }
                                    }
                                }
                            }
                            JOINT RightFinger3
                            {
                                OFFSET  -7.899780   0.000000  -1.078090
                                CHANNELS 3 Zrotation Xrotation Yrotation
                                JOINT RightFinger31
                                {
                                    OFFSET  -4.646930   0.000000   0.000000
                                    CHANNELS 3 Zrotation Xrotation Yrotation
                                    JOINT RightFinger32
                                    {
                                        OFFSET  -2.323470   0.000000   0.000000
                                        CHANNELS 3 Zrotation Xrotation Yrotation
                                        End Site
                                        {
                                            OFFSET  -2.273050   0.000000   0.000000
                                        }
                                    }
                                }
                            }
                            JOINT RightFinger4
                            {
                                OFFSET  -7.435090   0.000000  -3.252850
                                CHANNELS 3 Zrotation Xrotation Yrotation
                                JOINT RightFinger41
                                {
                                    OFFSET  -3.717550   0.000000   0.000000
                                    CHANNELS 3 Zrotation Xrotation Yrotation
                                    JOINT RightFinger42
                                    {
                                        OFFSET  -1.858770   0.000000   0.000000
                                        CHANNELS 3 Zrotation Xrotation Yrotation
                                        End Site
                                        {
                                            OFFSET  -1.818440   0.000000   0.000000
                                        }
                                    }
                                }
                            }
                        }
                    }
                }
            }
        }
    }
    JOINT LeftHip
    {
        OFFSET   9.783040   0.000000   0.000000
        CHANNELS 3 Zrotation Xrotation Yrotation
        JOINT LeftKnee
        {
            OFFSET   0.000032 -41.789100  -0.002222
            CHANNELS 3 Zrotation Xrotation Yrotation
            JOINT LeftAnkle
            {
                OFFSET   0.000087 -41.133200  -0.000135
                CHANNELS 3 Zrotation Xrotation Yrotation
                JOINT LeftToe
                {
                    OFFSET   0.000000  -6.358960  14.674500
                    CHANNELS 3 Zrotation Xrotation Yrotation
                    End Site
                    {
                        OFFSET   0.000000   0.000000   3.913200
                    }
                }
            }
        }
    }
    JOINT RightHip
    {
        OFFSET  -9.783040   0.000000   0.000000
        CHANNELS 3 Zrotation Xrotation Yrotation
        JOINT RightKnee
        {
            OFFSET   0.000047 -41.789100  -0.000896
            CHANNELS 3 Zrotation Xrotation Yrotation
            JOINT RightAnkle
            {
                OFFSET  -0.000117 -41.133300  -0.000248
                CHANNELS 3 Zrotation Xrotation Yrotation
                JOINT RightToe
                {
                    OFFSET   0.000000  -6.358970  14.674500
                    CHANNELS 3 Zrotation Xrotation Yrotation
                    End Site
                    {
                        OFFSET   0.000000   0.000000   3.913200
                    }
                }
            }
        }
    }
}
MOTION
Frames: 4
Frame Time:   0.016667
 -6.449520  89.253500  -0.165136  -3.556600 -10.196300 -11.306700   3.069570   9.518690  -3.624530   6.895280  18.804100  -7.932880   5.908360   3.618720  -0.377840   9.811690   7.103740 -30.305700  -5.457930   1.333260  11.647000 -76.910900  11.869600  -9.018180  -1.583790  -0.031464 -20.726900   9.182010  -4.205060  -1.010520  39.717900  35.808000 -49.039000 -35.017000  -0.000766   0.001699 -12.886500   0.004969  -0.000000 -35.424500  -1.882230   2.643930 -29.019200  -0.005990   0.003740 -20.313400  -0.005919  -0.006875 -31.427400  -3.699450   6.049490 -47.433300  -0.005819  -0.003617 -31.590600  -0.005055  -0.005854 -28.363100  -4.854930   8.909630 -40.014100  -0.000334  -0.000000 -26.649400   0.001269  -0.001577 -34.527000  -6.708470   9.636980 -52.639800   0.001857   0.005807 -35.058000  -0.002905   0.002598   2.754340  -0.791058  10.928700  51.932000 -20.104800  30.318700 -12.505300  -7.859930  68.271800  -3.937020 -40.592800  20.132000 -51.680000  41.981500  82.824600  21.428300   0.002417  -0.002442   5.714150  -0.006975  -0.006198  22.775000  -0.395382  -0.942386  18.636800   0.003768  -0.003804  13.045800   0.004032  -0.003615  20.139300  -0.618065  -1.685260  20.148500   0.005501  -0.002616  13.418900   0.003070  -0.005072  22.723300  -1.388150  -3.311250  22.763400   0.003629  -0.004082  15.160500   0.003872  -0.003703  28.343400  -1.705990  -3.159410  42.585600   0.005907  -0.004256  28.362000   0.005860  -0.006185   6.984140  13.078300   2.279250   0.421087   3.136110  18.238000  -6.648950  -3.886710  -0.282177   0.000000   0.000000   0.000000   2.948720  10.144300  -5.354900  -1.370400   5.524440  -7.781540   3.624300  -4.767900  11.475200  -0.000000   0.000000   0.000000
 -6.476000  89.250500  -0.120963  -3.581140 -10.140400 -11.405200   3.075310   9.522660  -3.621930   6.906950  18.811900  -7.928620   5.914700   3.628610  -0.377636   9.829320   7.122590 -30.380000  -5.446580   1.334050  11.633000 -76.862400  11.945800  -9.051270  -1.547420  -0.200675 -20.563200   9.201500  -4.290530  -0.953669  39.702000  35.816100 -49.073000 -35.058100  -0.000769   0.001703 -12.919100   0.004966   0.000000 -35.444800  -1.894240   2.657610 -29.036200  -0.005990   0.003739 -20.325300  -0.005921  -0.006875 -31.449300  -3.699490   6.043560 -47.465900  -0.005818  -0.003619 -31.612300  -0.005057  -0.005853 -28.362200  -4.860170   8.918290 -40.058800  -0.000333  -0.000000 -26.679200   0.001268  -0.001579 -34.547100  -6.714990   9.636650 -52.669700   0.001857   0.005808 -35.078000  -0.002906   0.002601   2.729950  -0.812240  10.930000  51.875400 -20.151900  30.583300 -12.574600  -7.952350  68.403900  -3.858700 -40.140800  20.230900 -51.705100  42.026300  82.859500  21.464600   0.002426  -0.002448   5.732330  -0.007251  -0.006334  22.744900  -0.369909  -0.883089  18.611800   0.003769  -0.003806  13.028300   0.004032  -0.003607  20.118100  -0.604859  -1.651420  20.126800   0.005497  -0.002614  13.404400   0.003075  -0.005081  22.681500  -1.382210  -3.303670  22.721300   0.003615  -0.004082  15.132400   0.003870  -0.003703  28.297900  -1.699010  -3.152630  42.517000   0.005907  -0.004253  28.316300   0.005859  -0.006184   7.022330  13.087500   2.281840   0.405672   3.111410  18.310300  -6.668940  -3.906400  -0.256725  -0.000000   0.000000   0.000000   2.967000  10.143800  -5.419620  -1.352900   5.468780  -7.688400   3.578690  -4.743730  11.542900   0.000000   0.000000   0.000000
 -6.503160  89.247800  -0.079231  -3.608750 -10.092400 -11.508800   3.080360   9.531290  -3.615180   6.916950  18.829000  -7.916810   5.928560   3.638140  -0.377551   9.846160   7.140510 -30.423700  -5.440460   1.334240  11.614600 -76.798200  12.057000  -9.104090  -1.517290  -0.384980 -20.373900   9.212390  -4.348220  -0.897218  39.682000  35.819200 -49.127300 -35.097300  -0.000773   0.001706 -12.948900   0.004964   0.000000 -35.464000  -1.896220   2.659560 -29.052000  -0.005990   0.003739 -20.336400  -0.005923  -0.006875 -31.470900  -3.699530   6.037470 -47.498100  -0.005817  -0.003622 -31.633700  -0.005058  -0.005853 -28.362100  -4.860920   8.919530 -40.100600  -0.000332   0.000000 -26.707000   0.001268  -0.001581 -34.566600  -6.715980   9.633430 -52.699700   0.001857   0.005808 -35.098000  -0.002906   0.002605   2.712980  -0.828578  10.933500  51.827300 -20.216200  30.863600 -12.644100  -8.045620  68.530900  -3.803940 -39.739600  20.304200 -51.730000  42.056200  82.883400  21.494200   0.002431  -0.002450   5.747130  -0.008165  -0.006470  22.698400  -0.354024  -0.846577  18.573600   0.003772  -0.003809  13.001500   0.004034  -0.003600  20.088100  -0.597513  -1.633480  20.096600   0.005493  -0.002612  13.384300   0.003077  -0.005091  22.639200  -1.376260  -3.296100  22.678800   0.003601  -0.004083  15.104100   0.003867  -0.003703  28.248100  -1.692030  -3.145840  42.441900   0.005907  -0.004250  28.266300   0.005857  -0.006184   7.059140  13.101200   2.283400   0.391924   3.094250  18.384800  -6.688870  -3.929340  -0.229406  -0.000000   0.000000   0.000000   2.986800  10.144500  -5.477400  -1.337900   5.422920  -7.596450   3.532170  -4.718550  11.610000  -0.000000   0.000000  -0.000000
 -6.529670  89.245900  -0.041675  -3.642070 -10.049500 -11.615100   3.086650   9.543260  -3.604140   6.929150  18.853200  -7.896520   5.946950   3.648080  -0.377564   9.874610   7.158910 -30.440500  -5.434440   1.326910  11.589300 -76.721600  12.181100  -9.155680  -1.500710  -0.570748 -20.172100   9.210540  -4.360810  -0.852304  39.645500  35.803800 -49.172700 -35.132200  -0.000775   0.001707 -12.974600   0.004968   0.000000 -35.474500  -1.893180   2.654630 -29.060300  -0.005989   0.003745 -20.342200  -0.005924  -0.006879 -31.486300  -3.699560   6.033220 -47.521000  -0.005820  -0.003619 -31.649000  -0.005056  -0.005854 -28.364200  -4.854490   8.907340 -40.124000  -0.000332   0.000000 -26.722600   0.001268  -0.001577 -34.575400  -6.710750   9.622640 -52.711500   0.001857   0.005808 -35.105900  -0.002905   0.002602   2.697540  -0.845406  10.939100  51.809800 -20.298800  31.148500 -12.702700  -8.126620  68.669500  -3.806920 -39.388400  20.344400 -51.678900  42.009800  82.750000  21.528600   0.002423  -0.002450   5.764300  -0.012822  -0.006631  22.678100  -0.356917  -0.853899  18.557100   0.003776  -0.003814  12.989900   0.004038  -0.003600  20.081600  -0.602048  -1.645670  20.090300   0.005497  -0.002614  13.380100   0.003074  -0.005086  22.618800  -1.381390  -3.310400  22.658700   0.003581  -0.004075  15.090700   0.003864  -0.003704  28.223400  -1.698360  -3.159650  42.405500   0.005912  -0.004251  28.242000   0.005860  -0.006185   7.093120  13.117900   2.285700   0.385253   3.081510  18.462600  -6.707240  -3.956270  -0.209968   0.000000   0.000000  -0.000000   3.015220  10.146500  -5.514050  -1.328830   5.380660  -7.514850   3.475090  -4.684370  11.665800   0.000000   0.000000   0.000000
